<svg width="128" height="128" viewBox="0 0 128 128" fill="none" xmlns="http://www.w3.org/2000/svg">
<g clip-path="url(#clip0_326_45)">
<path d="M63.5734 9.96703C34.0225 9.96703 9.93292 33.7921 9.50625 63.2406C9.07105 93.15 33.3398 117.939 63.2577 118.11C72.4993 118.161 81.391 115.908 89.2929 111.608C90.0609 111.189 90.1804 110.131 89.5233 109.551L84.463 105.062C83.439 104.149 81.9713 103.893 80.7084 104.431C75.1958 106.778 69.1969 107.972 63.0188 107.904C38.8438 107.605 19.3196 87.4924 19.7036 63.326C20.0876 39.4582 39.6204 20.1644 63.5734 20.1644H107.443V98.142L82.5516 76.0236C81.7494 75.3068 80.5121 75.4518 79.8636 76.3052C75.87 81.5958 69.359 84.8812 62.1313 84.3862C52.1046 83.695 43.9809 75.6225 43.23 65.5958C42.334 53.6406 51.806 43.6225 63.5734 43.6225C74.2145 43.6225 82.9868 51.8145 83.8998 62.2252C83.9852 63.1553 84.4033 64.0172 85.0945 64.6316L91.5798 70.3745C92.3137 71.023 93.4828 70.6305 93.662 69.6577C94.1313 67.1574 94.2934 64.5548 94.1142 61.8838C93.0732 46.6604 80.734 34.4065 65.5105 33.4764C48.0513 32.4012 33.4508 46.063 32.9815 63.1809C32.5292 79.8721 46.1996 94.2508 62.8908 94.6177C69.854 94.7713 76.3137 92.5782 81.5361 88.7809L114.057 117.615C115.448 118.852 117.649 117.862 117.649 116.002V12.0065C117.649 10.8716 116.728 9.9585 115.601 9.9585H63.5734V9.96703Z" fill="#2191FB"/>
</g>
<defs>
<clipPath id="clip0_326_45">
<rect width="128" height="128" fill="white"/>
</clipPath>
</defs>
</svg>
