<svg width="126" height="141" viewBox="0 0 126 141" fill="none" xmlns="http://www.w3.org/2000/svg">
<path d="M95.3279 109.109L82.9986 70.4398L115.311 46.6461H75.3448L62.9835 8.00976L62.9803 8H102.946L115.308 46.6363V46.6353L115.317 46.6288C122.491 69.0229 115.093 94.4766 95.3343 109.124L95.3279 109.109ZM30.671 109.109L30.6595 109.118L62.9931 133L95.3247 109.122L63.0059 85.2531L30.671 109.109ZM10.7039 46.6298C3.15582 70.251 11.9177 95.2783 30.6742 109.125L30.6774 109.113L43.0228 70.4951L10.7167 46.6363H50.6541L62.9995 8.00976H63.0155H23.0493L10.7039 46.6298Z" fill="#2191FB"/>
</svg>
