<svg width="116" height="125" viewBox="0 0 116 125" fill="none" xmlns="http://www.w3.org/2000/svg">
<path d="M92.0913 101.109L79.0894 62.4398L113.164 38.6461H71.0182L57.9826 0.00976446L57.9792 0H100.125L113.161 38.6363V38.6353L113.171 38.6288C120.736 61.0229 112.935 86.4766 92.098 101.124L92.0913 101.109ZM23.9076 101.109L23.8955 101.118L57.9927 125L92.0879 101.122L58.0062 77.2531L23.9076 101.109ZM2.85142 38.6298C-5.1084 62.251 4.13134 87.2783 23.911 101.125L23.9144 101.113L36.9331 62.4951L2.86493 38.6363H44.9807L57.9994 0.00976446H58.0163H15.8701L2.85142 38.6298Z" fill="#4FB286"/>
</svg>
