<svg width="128" height="128" viewBox="0 0 128 128" fill="none" xmlns="http://www.w3.org/2000/svg">
<g clip-path="url(#clip0_49_2914)">
<path d="M66.332 70.0321C66.572 65.7901 68.659 62.0451 71.817 59.3981C74.911 56.7961 79.065 55.2051 83.626 55.2051C88.163 55.2051 92.316 56.7951 95.406 59.3981C98.569 62.0451 100.643 65.7901 100.891 70.0321C101.131 74.3821 99.368 78.4421 96.286 81.4491C93.128 84.4991 88.659 86.4261 83.626 86.4261C78.589 86.4261 74.1 84.5111 70.962 81.4491C67.868 78.4431 66.109 74.4051 66.356 70.0521L66.332 70.0321Z" fill="#4FB286"/>
<path d="M39.245 79.0019C39.273 80.6619 39.809 83.8919 40.605 86.4059C42.287 91.7419 45.142 96.6789 49.095 101.005C53.157 105.47 58.169 109.06 63.945 111.615C70.018 114.285 76.61 115.652 83.45 115.652C90.29 115.643 96.882 114.252 102.954 111.55C108.73 108.968 113.744 105.382 117.804 100.893C121.778 96.5189 124.624 91.5859 126.295 86.2459C127.132 83.5935 127.667 80.8552 127.89 78.0829C128.098 75.3929 128.01 72.6779 127.627 69.9629C126.877 64.7316 125.031 59.7175 122.21 55.2489C119.636 51.0989 116.294 47.4889 112.32 44.4359L112.332 44.4319L72.377 13.9259C72.341 13.8979 72.309 13.8699 72.273 13.8459C69.654 11.8439 65.229 11.8519 62.363 13.8539C59.449 15.8849 59.113 19.2389 61.707 21.3499L61.695 21.3579L78.377 34.8419L27.588 34.8929H27.52C23.323 34.8969 19.281 37.6319 18.49 41.1059C17.67 44.6269 20.525 47.5659 24.902 47.5659L24.894 47.5819L50.63 47.5339L4.57998 82.5239C4.52398 82.5679 4.45998 82.6119 4.40398 82.6559C0.0689774 85.9499 -1.33002 91.4459 1.39998 94.8999C4.17798 98.4219 10.066 98.4459 14.447 94.9199L39.505 74.5099C39.505 74.5099 39.137 77.2679 39.169 78.9069L39.245 79.0019ZM103.805 88.2209C98.637 93.4489 91.389 96.4309 83.578 96.4309C75.747 96.4429 68.499 93.5129 63.33 88.2889C60.804 85.7299 58.953 82.8159 57.802 79.6979C56.6768 76.6298 56.2428 73.3511 56.531 70.0959C56.8046 66.9198 57.7516 63.8384 59.309 61.0569C60.816 58.3429 62.899 55.8769 65.449 53.7899C70.482 49.7319 76.869 47.5099 83.549 47.5099C90.258 47.5019 96.646 49.6839 101.679 53.7459C104.229 55.8209 106.304 58.2749 107.819 60.9889C109.38 63.7702 110.326 66.8539 110.593 70.0319C110.877 73.2857 110.443 76.5621 109.322 79.6299C108.175 82.7719 106.32 85.6859 103.789 88.2449L103.805 88.2209Z" fill="#4FB286"/>
</g>
<defs>
<clipPath id="clip0_49_2914">
<rect width="128" height="128" fill="white"/>
</clipPath>
</defs>
</svg>
