<svg width="128" height="102" viewBox="0 0 128 102" fill="none" xmlns="http://www.w3.org/2000/svg">
<g clip-path="url(#clip0_326_83)">
<path fill-rule="evenodd" clip-rule="evenodd" d="M26.5305 0.165527C19.2517 0.165527 13.8546 6.55519 14.0821 13.4825C14.3095 20.1203 14.02 28.7432 11.8488 35.7532C9.67754 42.8046 5.99677 47.2505 0 47.8295V54.2812C5.99677 54.8602 9.67754 59.3268 11.8695 66.3574C14.0407 73.3675 14.3302 81.9904 14.1027 88.6282C13.8753 95.5555 19.2517 101.945 26.5512 101.945H101.263C108.562 101.945 113.959 95.5555 113.711 88.6282C113.484 81.9904 113.773 73.3675 115.965 66.3574C118.136 59.3268 121.796 54.8602 127.814 54.2812V47.8295C121.817 47.2505 118.136 42.7839 115.965 35.7532C113.794 28.7432 113.484 20.1203 113.711 13.4825C113.959 6.55519 108.562 0.165527 101.263 0.165527H26.5305ZM86.643 62.8214C86.643 72.3542 79.5296 78.1235 67.7428 78.1235H47.664C46.4646 78.1235 45.4927 77.1516 45.4927 75.9523V26.1584C45.4927 24.9591 46.4646 23.9872 47.664 23.9872H67.6187C77.4617 23.9872 83.9134 29.3222 83.9134 37.4902C83.9134 43.2182 79.5709 48.3671 74.0291 49.277V49.5872C81.5561 50.4143 86.643 55.6253 86.643 62.8214ZM65.5509 30.8731H54.095V47.023H63.7312C71.1961 47.023 75.3112 44.0247 75.3112 38.6689C75.3112 33.6234 71.7751 30.8731 65.5509 30.8731ZM54.095 53.4541V71.2789H65.9645C73.7396 71.2789 77.8546 68.1772 77.8546 62.3045C77.8546 56.4731 73.6362 53.4541 65.4682 53.4541H54.095Z" fill="#2191FB"/>
</g>
<defs>
<clipPath id="clip0_326_83">
<rect width="128" height="101.945" fill="white"/>
</clipPath>
</defs>
</svg>
