<svg width="114" height="128" viewBox="0 0 114 128" fill="none" xmlns="http://www.w3.org/2000/svg">
<g clip-path="url(#clip0_110_56)">
<path d="M38.6805 88.9253C31.9014 82.545 27.9138 73.7721 27.9138 63.8029C27.9138 53.8337 31.9014 45.0608 38.2817 38.6805C43.8645 33.0978 43.8645 24.3249 38.2817 18.7421C32.699 13.1594 23.9261 13.1594 18.3433 18.7421C7.17782 30.3064 0 46.2571 0 63.8029C0 81.3487 7.17782 97.2994 18.7421 108.864C24.3249 114.446 33.0977 114.446 38.6805 108.864C43.8645 103.281 43.8645 94.5081 38.6805 88.9253Z" fill="#6AB089" fill-opacity="0.75"/>
<path d="M38.6804 38.6805C45.0607 31.9014 53.8336 27.9138 63.8028 27.9138C73.772 27.9138 82.5449 31.9014 88.9252 38.2817C94.5079 43.8645 103.281 43.8645 108.864 38.2817C114.446 32.699 114.446 23.9261 108.864 18.3433C97.2993 7.17782 81.3486 0 63.8028 0C46.257 0 30.3063 7.17782 18.742 18.7421C13.1592 24.3249 13.1592 33.0977 18.742 38.6805C24.3247 43.8645 33.0976 43.8645 38.6804 38.6805Z" fill="#6AB089" fill-opacity="0.75"/>
<path d="M88.9252 88.9252C82.5449 95.7043 73.772 99.692 63.8028 99.692C53.8336 99.692 45.0607 95.7043 38.6804 89.324C33.0976 83.7412 24.3247 83.7412 18.742 89.324C13.1592 94.9067 13.1592 103.68 18.742 109.262C30.3063 120.428 46.257 127.606 63.8028 127.606C81.3486 127.606 97.2993 120.428 108.864 108.864C114.446 103.281 114.446 94.508 108.864 88.9252C103.281 83.7412 94.5079 83.7412 88.9252 88.9252Z" fill="#6AB089" fill-opacity="0.75"/>
<path d="M28.7113 42.6682C36.4195 42.6682 42.6682 36.4194 42.6682 28.7113C42.6682 21.0031 36.4195 14.7544 28.7113 14.7544C21.0031 14.7544 14.7544 21.0031 14.7544 28.7113C14.7544 36.4194 21.0031 42.6682 28.7113 42.6682Z" fill="#4FB286"/>
<path d="M28.7113 112.851C36.4195 112.851 42.6682 106.603 42.6682 98.8945C42.6682 91.1863 36.4195 84.9376 28.7113 84.9376C21.0031 84.9376 14.7544 91.1863 14.7544 98.8945C14.7544 106.603 21.0031 112.851 28.7113 112.851Z" fill="#4FB286"/>
</g>
<defs>
<clipPath id="clip0_110_56">
<rect width="113.384" height="128" fill="white"/>
</clipPath>
</defs>
</svg>
