<svg width="128" height="128" viewBox="0 0 128 128" fill="none" xmlns="http://www.w3.org/2000/svg">
<path d="M37.2857 96.5714C36.9047 97 36.4285 96.9285 35.8571 96.3571C35.2381 95.8333 35.1428 95.3809 35.5714 95C35.9523 94.5714 36.4285 94.6428 37 95.2143C37.5714 95.7381 37.6666 96.1904 37.2857 96.5714ZM34.2857 92.2143C34.7143 92.7857 34.7143 93.2381 34.2857 93.5714C33.9047 93.8571 33.5 93.6904 33.0714 93.0714C32.6428 92.4523 32.6428 92.0238 33.0714 91.7857C33.5 91.4523 33.9047 91.5952 34.2857 92.2143ZM29.9285 87.9285C29.6904 88.2619 29.3809 88.3095 29 88.0714C28.5238 87.8333 28.3571 87.5476 28.5 87.2143C28.6428 86.9762 28.9523 86.9285 29.4285 87.0714C29.9047 87.3095 30.0714 87.5952 29.9285 87.9285ZM32.1428 90.3571C31.8571 90.6904 31.4762 90.619 31 90.1428C30.5714 89.619 30.5238 89.2381 30.8571 89C31.1428 88.7143 31.5238 88.7857 32 89.2143C32.4285 89.7381 32.4762 90.119 32.1428 90.3571ZM41.3571 98.3571C41.1666 98.9285 40.7143 99.0714 40 98.7857C39.1904 98.5952 38.8809 98.2381 39.0714 97.7143C39.2619 97.1904 39.7143 97.0238 40.4285 97.2143C41.1904 97.4524 41.5 97.8333 41.3571 98.3571ZM45.8571 98.7143C45.8571 99.2381 45.4762 99.5 44.7143 99.5C43.9047 99.5952 43.5 99.3333 43.5 98.7143C43.5 98.1904 43.8809 97.9285 44.6428 97.9285C45.4523 97.8333 45.8571 98.0952 45.8571 98.7143ZM50 98C50.0952 98.4762 49.7619 98.8095 49 99C48.2381 99.1904 47.8095 99 47.7143 98.4285C47.619 97.8571 47.9523 97.5 48.7143 97.3571C49.4762 97.2619 49.9047 97.4762 50 98ZM118.857 29.7143V98.2857C118.857 103.952 116.845 108.798 112.821 112.821C108.798 116.845 103.952 118.857 98.2857 118.857H82.2857C81.5238 118.857 80.9404 118.833 80.5357 118.786C80.1309 118.738 79.6666 118.619 79.1428 118.429C78.619 118.238 78.2381 117.893 78 117.393C77.7619 116.893 77.6428 116.238 77.6428 115.429V98.3571C77.6428 93.7381 76.4047 90.3571 73.9285 88.2143C76.6428 87.9285 79.0833 87.5 81.25 86.9285C83.4166 86.3571 85.6547 85.4285 87.9643 84.1428C90.2738 82.8571 92.2023 81.2738 93.75 79.3928C95.2976 77.5119 96.5595 75.0119 97.5357 71.8928C98.5119 68.7738 99 65.1904 99 61.1428C99 55.3809 97.119 50.4762 93.3571 46.4285C95.119 42.0952 94.9285 37.2381 92.7857 31.8571C91.4523 31.4285 89.5238 31.6904 87 32.6428C84.4762 33.5952 82.2857 34.6428 80.4285 35.7857L77.7143 37.5C73.2857 36.2619 68.7143 35.6428 64 35.6428C59.2857 35.6428 54.7143 36.2619 50.2857 37.5C49.5238 36.9762 48.5119 36.3333 47.25 35.5714C45.9881 34.8095 44 33.8928 41.2857 32.8214C38.5714 31.75 36.5238 31.4285 35.1428 31.8571C33.0476 37.2381 32.8809 42.0952 34.6428 46.4285C30.8809 50.4762 29 55.3809 29 61.1428C29 65.1904 29.4881 68.7619 30.4643 71.8571C31.4404 74.9523 32.6904 77.4523 34.2143 79.3571C35.7381 81.2619 37.6547 82.8571 39.9643 84.1428C42.2738 85.4285 44.5119 86.3571 46.6785 86.9285C48.8452 87.5 51.2857 87.9285 54 88.2143C52.0952 89.9285 50.9285 92.3809 50.5 95.5714C49.5 96.0476 48.4285 96.4047 47.2857 96.6428C46.1428 96.8809 44.7857 97 43.2143 97C41.6428 97 40.0833 96.4881 38.5357 95.4643C36.9881 94.4404 35.6666 92.9523 34.5714 91C33.6666 89.4762 32.5119 88.2381 31.1071 87.2857C29.7023 86.3333 28.5238 85.7619 27.5714 85.5714L26.1428 85.3571C25.1428 85.3571 24.4523 85.4643 24.0714 85.6785C23.6904 85.8928 23.5714 86.1666 23.7143 86.5C23.8571 86.8333 24.0714 87.1666 24.3571 87.5C24.6428 87.8333 24.9523 88.119 25.2857 88.3571L25.7857 88.7143C26.8333 89.1904 27.869 90.0952 28.8928 91.4285C29.9166 92.7619 30.6666 93.9762 31.1428 95.0714L31.8571 96.7143C32.4762 98.5238 33.5238 99.9881 35 101.107C36.4762 102.226 38.0714 102.94 39.7857 103.25C41.5 103.559 43.1547 103.726 44.75 103.75C46.3452 103.774 47.6666 103.69 48.7143 103.5L50.3571 103.214C50.3571 105.024 50.369 107.476 50.3928 110.571C50.4166 113.667 50.4285 115.286 50.4285 115.429C50.4285 116.476 50.1666 117.274 49.6428 117.821C49.119 118.369 48.5952 118.679 48.0714 118.75C47.5476 118.821 46.7619 118.857 45.7143 118.857H29.7143C24.0476 118.857 19.2023 116.845 15.1785 112.821C11.1547 108.798 9.14282 103.952 9.14282 98.2857V29.7143C9.14282 24.0476 11.1547 19.2023 15.1785 15.1785C19.2023 11.1547 24.0476 9.14282 29.7143 9.14282H98.2857C103.952 9.14282 108.798 11.1547 112.821 15.1785C116.845 19.2023 118.857 24.0476 118.857 29.7143Z" fill="#2191FB"/>
</svg>
