<svg width="128" height="128" viewBox="0 0 128 128" fill="none" xmlns="http://www.w3.org/2000/svg">
<path d="M37.2855 96.5712C36.9045 96.9998 36.4283 96.9283 35.8569 96.3569C35.2379 95.8331 35.1426 95.3807 35.5712 94.9998C35.9521 94.5712 36.4283 94.6426 36.9998 95.2141C37.5712 95.7379 37.6664 96.1902 37.2855 96.5712ZM34.2855 92.2141C34.7141 92.7855 34.7141 93.2379 34.2855 93.5712C33.9045 93.8569 33.4998 93.6902 33.0712 93.0712C32.6426 92.4521 32.6426 92.0236 33.0712 91.7855C33.4998 91.4521 33.9045 91.595 34.2855 92.2141ZM29.9283 87.9283C29.6902 88.2617 29.3807 88.3093 28.9998 88.0712C28.5236 87.8331 28.3569 87.5474 28.4998 87.2141C28.6426 86.976 28.9521 86.9283 29.4283 87.0712C29.9045 87.3093 30.0712 87.595 29.9283 87.9283ZM32.1426 90.3569C31.8569 90.6902 31.476 90.6188 30.9998 90.1426C30.5712 89.6188 30.5236 89.2379 30.8569 88.9998C31.1426 88.7141 31.5236 88.7855 31.9998 89.2141C32.4283 89.7379 32.476 90.1188 32.1426 90.3569ZM41.3569 98.3569C41.1664 98.9283 40.7141 99.0712 39.9998 98.7855C39.1902 98.595 38.8807 98.2379 39.0712 97.7141C39.2617 97.1902 39.7141 97.0236 40.4283 97.2141C41.1902 97.4522 41.4998 97.8331 41.3569 98.3569ZM45.8569 98.7141C45.8569 99.2379 45.476 99.4998 44.7141 99.4998C43.9045 99.595 43.4998 99.3331 43.4998 98.7141C43.4998 98.1902 43.8807 97.9283 44.6426 97.9283C45.4521 97.8331 45.8569 98.095 45.8569 98.7141ZM49.9998 97.9998C50.095 98.476 49.7617 98.8093 48.9998 98.9998C48.2379 99.1902 47.8093 98.9998 47.7141 98.4283C47.6188 97.8569 47.9521 97.4998 48.7141 97.3569C49.476 97.2617 49.9045 97.476 49.9998 97.9998ZM118.857 29.7141V98.2855C118.857 103.952 116.845 108.798 112.821 112.821C108.798 116.845 103.952 118.857 98.2855 118.857H82.2855C81.5236 118.857 80.9402 118.833 80.5355 118.786C80.1307 118.738 79.6664 118.619 79.1426 118.429C78.6188 118.238 78.2379 117.893 77.9998 117.393C77.7617 116.893 77.6426 116.238 77.6426 115.429V98.3569C77.6426 93.7379 76.4045 90.3569 73.9283 88.2141C76.6426 87.9283 79.0831 87.4998 81.2498 86.9283C83.4164 86.3569 85.6545 85.4283 87.9641 84.1426C90.2736 82.8569 92.2021 81.2736 93.7498 79.3926C95.2974 77.5117 96.5593 75.0117 97.5355 71.8926C98.5117 68.7736 98.9998 65.1902 98.9998 61.1426C98.9998 55.3807 97.1188 50.476 93.3569 46.4283C95.1188 42.095 94.9283 37.2379 92.7855 31.8569C91.4521 31.4283 89.5236 31.6902 86.9998 32.6426C84.476 33.595 82.2855 34.6426 80.4283 35.7855L77.7141 37.4998C73.2855 36.2617 68.7141 35.6426 63.9998 35.6426C59.2855 35.6426 54.7141 36.2617 50.2855 37.4998C49.5236 36.976 48.5117 36.3331 47.2498 35.5712C45.9879 34.8093 43.9998 33.8926 41.2855 32.8212C38.5712 31.7498 36.5236 31.4283 35.1426 31.8569C33.0474 37.2379 32.8807 42.095 34.6426 46.4283C30.8807 50.476 28.9998 55.3807 28.9998 61.1426C28.9998 65.1902 29.4879 68.7617 30.4641 71.8569C31.4402 74.9521 32.6902 77.4521 34.2141 79.3569C35.7379 81.2617 37.6545 82.8569 39.9641 84.1426C42.2736 85.4283 44.5117 86.3569 46.6783 86.9283C48.845 87.4998 51.2855 87.9283 53.9998 88.2141C52.095 89.9283 50.9283 92.3807 50.4998 95.5712C49.4998 96.0474 48.4283 96.4045 47.2855 96.6426C46.1426 96.8807 44.7855 96.9998 43.2141 96.9998C41.6426 96.9998 40.0831 96.4879 38.5355 95.4641C36.9879 94.4402 35.6664 92.9521 34.5712 90.9998C33.6664 89.476 32.5117 88.2379 31.1069 87.2855C29.7021 86.3331 28.5236 85.7617 27.5712 85.5712L26.1426 85.3569C25.1426 85.3569 24.4521 85.4641 24.0712 85.6783C23.6902 85.8926 23.5712 86.1664 23.7141 86.4998C23.8569 86.8331 24.0712 87.1664 24.3569 87.4998C24.6426 87.8331 24.9521 88.1188 25.2855 88.3569L25.7855 88.7141C26.8331 89.1902 27.8688 90.095 28.8926 91.4283C29.9164 92.7617 30.6664 93.976 31.1426 95.0712L31.8569 96.7141C32.476 98.5236 33.5236 99.9879 34.9998 101.107C36.476 102.226 38.0712 102.94 39.7855 103.25C41.4998 103.559 43.1545 103.726 44.7498 103.75C46.345 103.774 47.6664 103.69 48.7141 103.5L50.3569 103.214C50.3569 105.024 50.3688 107.476 50.3926 110.571C50.4164 113.667 50.4283 115.286 50.4283 115.429C50.4283 116.476 50.1664 117.274 49.6426 117.821C49.1188 118.369 48.595 118.679 48.0712 118.75C47.5474 118.821 46.7617 118.857 45.7141 118.857H29.7141C24.0474 118.857 19.2021 116.845 15.1783 112.821C11.1545 108.798 9.14258 103.952 9.14258 98.2855V29.7141C9.14258 24.0474 11.1545 19.2021 15.1783 15.1783C19.2021 11.1545 24.0474 9.14258 29.7141 9.14258H98.2855C103.952 9.14258 108.798 11.1545 112.821 15.1783C116.845 19.2021 118.857 24.0474 118.857 29.7141Z" fill="#4576A9"/>
</svg>
