<svg width="121" height="134" viewBox="0 0 121 134" fill="none" xmlns="http://www.w3.org/2000/svg">
<g clip-path="url(#clip0_326_54)">
<path fill-rule="evenodd" clip-rule="evenodd" d="M120.999 117.185C121.049 126.382 113.632 133.87 104.441 133.92C103.758 133.925 103.069 133.887 102.391 133.804C93.8613 132.542 87.613 125.12 87.822 116.502V17.4167C87.6182 8.7875 93.8834 1.36544 102.419 0.1145C111.549 -0.954405 119.82 5.58038 120.889 14.7111C120.966 15.3834 121.005 16.0557 120.999 16.7332V117.185L120.999 117.185Z" fill="#4FB286"/>
<path fill-rule="evenodd" clip-rule="evenodd" d="M16.5913 100.765C25.755 100.765 33.1827 108.193 33.1827 117.356C33.1827 126.52 25.755 133.948 16.5913 133.948C7.42768 133.948 0 126.52 0 117.356C0 108.193 7.42768 100.765 16.5913 100.765ZM60.2436 50.4837C51.0362 50.9905 43.8946 58.7103 44.1096 67.929V112.49C44.1096 124.585 49.4324 131.925 57.2294 133.49C66.2279 135.314 74.9945 129.5 76.8185 120.502C77.0443 119.4 77.1544 118.282 77.1488 117.158V67.1579C77.1653 57.9613 69.7267 50.4946 60.5301 50.4785C60.4365 50.4785 60.3372 50.4785 60.2436 50.4841V50.4837Z" fill="#588C6F"/>
</g>
<defs>
<clipPath id="clip0_326_54">
<rect width="121" height="133.947" fill="white"/>
</clipPath>
</defs>
</svg>
