<svg width="128" height="128" viewBox="0 0 128 128" fill="none" xmlns="http://www.w3.org/2000/svg">
<path d="M74.9813 121.982L53.0762 100.053L100.132 52.5161L122.443 74.8212L74.9813 121.982Z" fill="#2191FB"/>
<path d="M75.138 27.533L52.8329 5.22217L5.53897 52.5161C-0.622743 58.672 -0.628537 68.6479 5.52738 74.8096C5.53318 74.8154 5.53897 74.8212 5.53897 74.8212L52.8329 122.115L74.7148 100.135L38.9734 63.6976L75.138 27.533Z" fill="#3D73BE"/>
<path d="M122.432 52.5163L75.1382 5.22236C68.9765 -0.939355 58.9891 -0.939355 52.8273 5.22236C46.6656 11.3841 46.6656 21.3715 52.8273 27.5274L100.15 74.8214C106.312 80.9831 116.299 80.9831 122.455 74.8214C128.617 68.6596 128.617 58.6722 122.455 52.5163H122.432Z" fill="#2191FB"/>
<path d="M63.8115 126.782C72.4455 126.782 79.4447 119.782 79.4447 111.148C79.4447 102.514 72.4455 95.5151 63.8115 95.5151C55.1775 95.5151 48.1782 102.514 48.1782 111.148C48.1782 119.782 55.1775 126.782 63.8115 126.782Z" fill="#2191FB"/>
</svg>
