<svg width="136" height="136" viewBox="0 0 136 136" fill="none" xmlns="http://www.w3.org/2000/svg">
<g clip-path="url(#clip0_326_91)" filter="url(#filter0_d_326_91)">
<mask id="mask0_326_91" style="mask-type:luminance" maskUnits="userSpaceOnUse" x="4" y="0" width="128" height="128">
<path d="M132 0H4V128H132V0Z" fill="white"/>
</mask>
<g mask="url(#mask0_326_91)">
<path fill-rule="evenodd" clip-rule="evenodd" d="M68.0192 0C103.351 0 132.038 28.6493 132.038 64.0192C132.038 99.3507 103.389 128.038 68.0192 128.038C32.6877 128.038 4 99.3891 4 64.0192C4 28.6877 32.6493 0 68.0192 0ZM53.0417 28.8797H82.9967C94.249 28.8797 103.427 37.9814 103.427 49.0417V78.9199C103.427 90.0186 94.249 99.0819 82.9967 99.0819H53.0417C41.7894 99.0819 32.6109 90.0186 32.6109 78.9199V49.0417C32.6109 37.943 41.8278 28.8797 53.0417 28.8797ZM67.8272 45.0477C78.7723 45.0477 87.6436 53.919 87.6436 64.8641C87.6436 75.8092 78.7723 84.6805 67.8272 84.6805C56.8821 84.6805 48.0108 75.8092 48.0108 64.8641C48.0108 53.919 56.8821 45.0477 67.8272 45.0477ZM67.8272 51.73C75.0471 51.73 80.9229 57.6058 80.9229 64.8257C80.9229 72.0456 75.0471 77.9214 67.8272 77.9214C60.5689 77.9214 54.7315 72.0456 54.7315 64.8257C54.7315 57.6058 60.6073 51.73 67.8272 51.73ZM86.9907 42.2826C88.7573 42.2826 90.2166 43.7036 90.2166 45.5086C90.2166 47.2751 88.7957 48.7345 86.9907 48.7345C85.2241 48.7345 83.7648 47.3135 83.7648 45.5086C83.7648 43.742 85.1857 42.2826 86.9907 42.2826ZM55.4996 34.6019H80.5389C89.9478 34.6019 97.6286 42.2442 97.6286 51.6148V76.8077C97.6286 86.1782 89.9478 93.8206 80.5389 93.8206H55.4996C46.0906 93.8206 38.4098 86.1782 38.4098 76.8077V51.6148C38.4098 42.2442 46.0906 34.6019 55.4996 34.6019Z" fill="#4576A9"/>
</g>
</g>
<defs>
<filter id="filter0_d_326_91" x="0" y="0" width="136" height="136" filterUnits="userSpaceOnUse" color-interpolation-filters="sRGB">
<feFlood flood-opacity="0" result="BackgroundImageFix"/>
<feColorMatrix in="SourceAlpha" type="matrix" values="0 0 0 0 0 0 0 0 0 0 0 0 0 0 0 0 0 0 127 0" result="hardAlpha"/>
<feOffset dy="4"/>
<feGaussianBlur stdDeviation="2"/>
<feComposite in2="hardAlpha" operator="out"/>
<feColorMatrix type="matrix" values="0 0 0 0 0 0 0 0 0 0 0 0 0 0 0 0 0 0 0.25 0"/>
<feBlend mode="normal" in2="BackgroundImageFix" result="effect1_dropShadow_326_91"/>
<feBlend mode="normal" in="SourceGraphic" in2="effect1_dropShadow_326_91" result="shape"/>
</filter>
<clipPath id="clip0_326_91">
<rect width="128" height="128" fill="white" transform="translate(4)"/>
</clipPath>
</defs>
</svg>
