<svg width="128" height="128" viewBox="0 0 128 128" fill="none" xmlns="http://www.w3.org/2000/svg">
<g clip-path="url(#clip0_51_3009)">
<path fill-rule="evenodd" clip-rule="evenodd" d="M64.0192 0C99.3507 0 128.038 28.6493 128.038 64.0192C128.038 99.3507 99.3891 128.038 64.0192 128.038C28.6877 128.038 0 99.3891 0 64.0192C0 28.6877 28.6493 0 64.0192 0ZM49.0417 28.8797H78.9967C90.249 28.8797 99.4275 37.9814 99.4275 49.0417V78.9199C99.4275 90.0186 90.249 99.0819 78.9967 99.0819H49.0417C37.7894 99.0819 28.6109 90.0186 28.6109 78.9199V49.0417C28.6109 37.943 37.8278 28.8797 49.0417 28.8797ZM63.8272 45.0477C74.7723 45.0477 83.6436 53.919 83.6436 64.8641C83.6436 75.8092 74.7723 84.6805 63.8272 84.6805C52.8821 84.6805 44.0108 75.8092 44.0108 64.8641C44.0108 53.919 52.8821 45.0477 63.8272 45.0477ZM63.8272 51.73C71.0471 51.73 76.9229 57.6058 76.9229 64.8257C76.9229 72.0456 71.0471 77.9214 63.8272 77.9214C56.5689 77.9214 50.7315 72.0456 50.7315 64.8257C50.7315 57.6058 56.6073 51.73 63.8272 51.73ZM82.9907 42.2826C84.7573 42.2826 86.2166 43.7036 86.2166 45.5086C86.2166 47.2751 84.7957 48.7345 82.9907 48.7345C81.2241 48.7345 79.7648 47.3135 79.7648 45.5086C79.7648 43.742 81.1857 42.2826 82.9907 42.2826ZM51.4996 34.6019H76.5389C85.9478 34.6019 93.6286 42.2442 93.6286 51.6148V76.8077C93.6286 86.1782 85.9478 93.8206 76.5389 93.8206H51.4996C42.0906 93.8206 34.4098 86.1782 34.4098 76.8077V51.6148C34.4098 42.2442 42.0906 34.6019 51.4996 34.6019Z" fill="#4FB286"/>
</g>
<defs>
<clipPath id="clip0_51_3009">
<rect width="128" height="128" fill="white"/>
</clipPath>
</defs>
</svg>
