<svg width="128" height="142" viewBox="0 0 128 142" fill="none" xmlns="http://www.w3.org/2000/svg">
<g clip-path="url(#clip0_326_72)">
<path d="M123.2 69.6166C123.2 61.6241 117.441 54.9551 109.856 53.5306L128 0.0151367H42.233L60.405 53.6391C53.0835 55.2686 47.5915 61.8116 47.5915 69.6166C47.5915 75.4781 50.689 80.6266 55.3315 83.5196C53.0985 86.8461 50.4505 89.9766 47.416 92.8391C42.604 97.3791 37.2425 100.822 31.4625 103.087C25.641 99.4301 23.18 92.5341 25.736 86.5261L25.936 86.0561L26.3115 85.1721C32.7055 82.9426 37.308 76.8561 37.308 69.7111C37.308 60.6836 29.9635 53.3396 20.936 53.3396C11.9085 53.3396 4.56452 60.6836 4.56452 69.7111C4.56452 74.2676 6.43702 78.3936 9.45102 81.3646C8.88903 82.5561 8.31852 83.7434 7.73952 84.9266C4.98352 90.5871 1.86002 97.0032 0.678518 104.128C-1.66798 118.277 2.11652 129.588 11.335 135.977C16.929 139.854 22.6095 141.379 28.326 141.379C39.0905 141.378 49.979 135.971 60.629 130.681C68.2995 126.871 76.2305 122.932 84.065 121C86.98 120.281 89.9795 119.848 93.155 119.39C99.452 118.482 105.964 117.543 111.732 114.202C118.418 110.33 122.995 103.834 124.289 96.3801C125.4 89.9816 124.062 83.5736 120.801 78.1386C122.373 75.5742 123.203 72.6244 123.2 69.6166ZM116.773 69.6166C116.773 75.1001 112.312 79.5616 106.828 79.5616C101.345 79.5616 96.883 75.1001 96.883 69.6166C96.883 64.1331 101.345 59.6721 106.828 59.6721C112.312 59.6721 116.773 64.1331 116.773 69.6166ZM119.035 6.44214L103.012 53.6986C102.323 53.8636 101.645 54.0737 100.983 54.3276L85.155 22.0386L69.281 54.1366C68.5895 53.8973 67.8825 53.7052 67.165 53.5616L51.1975 6.44214H119.035ZM63.963 59.6721C69.4465 59.6721 73.9075 64.1331 73.9075 69.6166C73.9075 75.1001 69.4465 79.5616 63.963 79.5616C58.48 79.5616 54.0185 75.1001 54.0185 69.6166C54.0185 64.1331 58.48 59.6721 63.963 59.6721ZM20.936 59.7666C26.42 59.7666 30.881 64.2276 30.881 69.7111C30.881 75.1946 26.42 79.6561 20.936 79.6561C15.453 79.6561 10.9915 75.1946 10.9915 69.7111C10.9915 64.2276 15.453 59.7666 20.936 59.7666ZM117.956 95.2807C116.989 100.855 113.546 105.724 108.511 108.64C103.817 111.359 98.1925 112.17 92.2375 113.029C89.0475 113.489 85.7485 113.965 82.526 114.76C74.005 116.861 65.7515 120.96 57.77 124.925C41.7975 132.858 28.003 139.709 14.9965 130.695C5.46902 124.092 5.90902 111.874 7.01902 105.179C8.04752 98.9767 10.8285 93.2642 13.518 87.7396C13.9756 86.8006 14.4293 85.8595 14.879 84.9166C16.2351 85.4594 17.6583 85.8167 19.11 85.9786C16.3725 95.0141 20.678 104.838 29.7145 109.481L30.951 110.116L32.261 109.65C39.405 107.106 45.9875 103.023 51.8265 97.5141C55.601 93.9536 58.8445 90.0141 61.5115 85.8046C62.323 85.927 63.1424 85.9885 63.963 85.9887C72.9905 85.9887 80.335 78.6446 80.335 69.6166C80.335 64.7616 78.2085 60.3956 74.8405 57.3946L85.1295 36.5886L95.523 57.7911C92.4045 60.7741 90.456 64.9706 90.456 69.6166C90.456 78.6446 97.8 85.9887 106.828 85.9887C110.167 85.9916 113.426 84.9673 116.164 83.0546C118.004 86.8211 118.689 91.0592 117.956 95.2807Z" fill="#4FB286"/>
</g>
<defs>
<clipPath id="clip0_326_72">
<rect width="128" height="141.53" fill="white"/>
</clipPath>
</defs>
</svg>
