<svg width="128" height="142" viewBox="0 0 128 142" fill="none" xmlns="http://www.w3.org/2000/svg">
<path d="M123.2 69.6015C123.2 61.609 117.441 54.94 109.856 53.5155L128 0H42.233L60.405 53.624C53.0835 55.2535 47.5915 61.7965 47.5915 69.6015C47.5915 75.463 50.689 80.6115 55.3315 83.5045C53.0985 86.831 50.4505 89.9615 47.416 92.824C42.604 97.364 37.2425 100.807 31.4625 103.072C25.641 99.415 23.18 92.519 25.736 86.511L25.936 86.041L26.3115 85.157C32.7055 82.9275 37.308 76.841 37.308 69.696C37.308 60.6685 29.9635 53.3245 20.936 53.3245C11.9085 53.3245 4.56452 60.6685 4.56452 69.696C4.56452 74.2525 6.43702 78.3785 9.45102 81.3495C8.88903 82.5409 8.31852 83.7283 7.73952 84.9115C4.98352 90.572 1.86002 96.988 0.678518 104.113C-1.66798 118.262 2.11652 129.573 11.335 135.962C16.929 139.839 22.6095 141.364 28.326 141.364C39.0905 141.363 49.979 135.956 60.629 130.666C68.2995 126.856 76.2305 122.917 84.065 120.985C86.98 120.266 89.9795 119.833 93.155 119.375C99.452 118.467 105.964 117.528 111.732 114.187C118.418 110.315 122.995 103.819 124.289 96.365C125.4 89.9665 124.062 83.5585 120.801 78.1235C122.373 75.5591 123.203 72.6093 123.2 69.6015ZM116.773 69.6015C116.773 75.085 112.312 79.5465 106.828 79.5465C101.345 79.5465 96.883 75.085 96.883 69.6015C96.883 64.118 101.345 59.657 106.828 59.657C112.312 59.657 116.773 64.118 116.773 69.6015ZM119.035 6.427L103.012 53.6835C102.323 53.8485 101.645 54.0586 100.983 54.3125L85.155 22.0235L69.281 54.1215C68.5895 53.8822 67.8825 53.6901 67.165 53.5465L51.1975 6.427H119.035ZM63.963 59.657C69.4465 59.657 73.9075 64.118 73.9075 69.6015C73.9075 75.085 69.4465 79.5465 63.963 79.5465C58.48 79.5465 54.0185 75.085 54.0185 69.6015C54.0185 64.118 58.48 59.657 63.963 59.657ZM20.936 59.7515C26.42 59.7515 30.881 64.2125 30.881 69.696C30.881 75.1795 26.42 79.641 20.936 79.641C15.453 79.641 10.9915 75.1795 10.9915 69.696C10.9915 64.2125 15.453 59.7515 20.936 59.7515ZM117.956 95.2655C116.989 100.84 113.546 105.709 108.511 108.625C103.817 111.344 98.1925 112.155 92.2375 113.014C89.0475 113.474 85.7485 113.95 82.526 114.745C74.005 116.846 65.7515 120.945 57.77 124.91C41.7975 132.843 28.003 139.694 14.9965 130.68C5.46902 124.077 5.90902 111.859 7.01902 105.164C8.04752 98.9615 10.8285 93.249 13.518 87.7245C13.9756 86.7854 14.4293 85.8444 14.879 84.9015C16.2351 85.4443 17.6583 85.8015 19.11 85.9635C16.3725 94.999 20.678 104.823 29.7145 109.466L30.951 110.101L32.261 109.635C39.405 107.091 45.9875 103.008 51.8265 97.499C55.601 93.9385 58.8445 89.999 61.5115 85.7895C62.323 85.9119 63.1424 85.9734 63.963 85.9735C72.9905 85.9735 80.335 78.6295 80.335 69.6015C80.335 64.7465 78.2085 60.3805 74.8405 57.3795L85.1295 36.5735L95.523 57.776C92.4045 60.759 90.456 64.9555 90.456 69.6015C90.456 78.6295 97.8 85.9735 106.828 85.9735C110.167 85.9765 113.426 84.9522 116.164 83.0395C118.004 86.806 118.689 91.044 117.956 95.2655Z" fill="#2191FB"/>
</svg>
