<svg width="51" height="55" viewBox="0 0 51 55" fill="none" xmlns="http://www.w3.org/2000/svg">
<path d="M21.8256 40.2855H14.683V33.1429H21.8256V40.2855Z" fill="#1F2023"/>
<path d="M14.6827 47.4284H7.54011V40.2858L14.683 40.2855L14.6827 47.4284Z" fill="#1F2023"/>
<path d="M7.53983 54.5713H0.397217V47.4287L7.54011 47.4284L7.53983 54.5713Z" fill="#1F2023"/>
<path d="M50.3972 54.5713H43.2546V47.4287H50.3972V54.5713Z" fill="#1F2023"/>
<path d="M43.2546 47.4287L36.1117 47.4284V40.2858H43.2543L43.2546 47.4287Z" fill="#1F2023"/>
<path d="M36.1117 40.2858L28.9688 40.2855V33.1429H36.1114L36.1117 40.2858Z" fill="#1F2023"/>
<path d="M28.9688 33.1429H21.8256L21.8259 26H28.9685L28.9688 33.1429Z" fill="#1F2023"/>
<path d="M21.4284 14.2855H14.2858V7.14292H21.4284V14.2855Z" fill="#1F2023"/>
<path d="M14.2855 21.4284H7.14289V14.2858L14.2858 14.2855L14.2855 21.4284Z" fill="#1F2023"/>
<path d="M7.14261 28.5713H0V21.4287L7.14289 21.4284L7.14261 28.5713Z" fill="#1F2023"/>
<path d="M50 28.5713H42.8574V21.4287H50V28.5713Z" fill="#1F2023"/>
<path d="M42.8574 21.4287L35.7145 21.4284V14.2858H42.8571L42.8574 21.4287Z" fill="#1F2023"/>
<path d="M35.7145 14.2858L28.5716 14.2855V7.14292H35.7142L35.7145 14.2858Z" fill="#1F2023"/>
<path d="M28.5716 7.14292H21.4284L21.4287 0H28.5713L28.5716 7.14292Z" fill="#1F2023"/>
</svg>
