<svg width="739" height="739" viewBox="0 0 739 739" fill="none" xmlns="http://www.w3.org/2000/svg">
<path fill-rule="evenodd" clip-rule="evenodd" d="M671.347 67.136H738.483V0H671.347V67.136ZM604.216 67.136H671.347V0H604.216V67.136ZM537.08 134.267H604.216V67.136H537.08V134.267ZM469.949 134.267H537.08V67.136H469.949V134.267ZM402.813 201.403H469.949V134.267H402.813V201.403ZM335.683 201.403H402.813V134.267H335.683V201.403ZM268.547 268.533H335.683V201.403H268.547V268.533ZM201.416 268.533H268.547V201.403H201.416V268.533ZM134.28 335.669H201.416V268.533H134.28V335.669ZM67.1493 335.669H134.28V268.533H67.1493V335.669ZM671.336 134.269H738.472V67.1387H671.336V134.269ZM671.336 201.405H738.472V134.269H671.336V201.405ZM604.205 268.536H671.336V201.405H604.205V268.536ZM604.205 335.672H671.336V268.536H604.205V335.672ZM537.069 402.803H604.205V335.672H537.069V402.803ZM537.069 469.939H604.205V402.803H537.069V469.939ZM469.939 537.069H537.069V469.939H469.939V537.069ZM469.939 604.205H537.069V537.069H469.939V604.205ZM402.803 671.336H469.939V604.205H402.803V671.336ZM402.803 738.472H469.939V671.336H402.803V738.472ZM335.672 671.336H402.803V604.205H335.672V671.336ZM335.672 604.205H402.803V537.069H335.672V604.205ZM268.536 537.069H335.672V469.939H268.536V537.069ZM268.536 469.939H335.672V402.803H268.536V469.939ZM335.672 402.803H402.803V335.672H335.672V402.803ZM402.803 335.672H469.939V268.536H402.803V335.672ZM469.939 268.536H537.069V201.405H469.939V268.536ZM537.069 201.405H604.205V134.269H537.069V201.405ZM201.403 469.939H268.533V402.803H201.403V469.939ZM134.267 469.939H201.403V402.803H134.267V469.939ZM67.136 402.803H134.267V335.672H67.136V402.803ZM0 402.803H67.136V335.672H0V402.803Z" fill="#F1F4EF"/>
</svg>
