<svg width="141" height="125" viewBox="0 0 141 125" fill="none" xmlns="http://www.w3.org/2000/svg">
<path d="M32.3555 15.9504C32.3555 32.8029 42.9485 42.8331 64.1616 48.1228L86.6361 53.243C106.71 57.7731 118.931 69.0239 118.931 87.3549C119.087 95.3369 116.442 103.136 111.444 109.436C111.444 91.1458 101.814 81.2649 78.5863 75.3241L56.5187 70.3939C38.8456 66.4334 25.2076 57.1831 25.2076 37.2721C25.1262 29.5816 27.6355 22.0811 32.3555 15.9504Z" fill="#2191FB"/>
<path opacity="0.7" d="M97.643 82.8653C107.225 88.8875 111.43 97.3171 111.43 109.409C103.496 119.392 89.5524 125 73.1678 125C45.5867 125 26.286 111.66 22 88.4874H48.4825C51.8937 99.1278 60.9201 104.058 72.9712 104.058C87.6807 104.058 97.4599 96.3473 97.6565 82.8179" fill="#2191FB"/>
<path opacity="0.7" d="M46.1292 40.9343C41.755 38.3776 38.1607 34.7087 35.7328 30.3074C33.3118 25.9061 32.1453 20.9486 32.3556 15.9505C40.0121 6.04926 53.3313 0 69.5667 0C97.6632 0 113.919 14.5806 117.927 35.102H92.4481C89.6405 27.0115 82.6011 20.7113 69.7769 20.7113C56.0711 20.7113 46.726 28.5509 46.1834 40.9343" fill="#2191FB"/>
</svg>
