<svg width="141" height="125" viewBox="0 0 141 125" fill="none" xmlns="http://www.w3.org/2000/svg">
<path d="M32.3556 15.9504C32.3556 32.8029 42.9486 42.8331 64.1618 48.1228L86.6363 53.243C106.71 57.7731 118.931 69.0239 118.931 87.3549C119.087 95.3369 116.442 103.136 111.444 109.436C111.444 91.1458 101.814 81.2649 78.5864 75.3241L56.5188 70.3939C38.8457 66.4334 25.2077 57.1831 25.2077 37.2721C25.1263 29.5816 27.6356 22.0811 32.3556 15.9504Z" fill="#4FB286"/>
<path opacity="0.7" d="M97.643 82.8653C107.225 88.8875 111.43 97.3171 111.43 109.409C103.496 119.392 89.5524 125 73.1678 125C45.5867 125 26.286 111.66 22 88.4874H48.4825C51.8937 99.1278 60.9201 104.058 72.9712 104.058C87.6807 104.058 97.4599 96.3473 97.6565 82.8179" fill="#4FB286"/>
<path opacity="0.7" d="M46.1293 40.9343C41.7551 38.3776 38.1608 34.7087 35.733 30.3074C33.3119 25.9061 32.1454 20.9486 32.3557 15.9505C40.0122 6.04926 53.3314 0 69.5668 0C97.6633 0 113.919 14.5806 117.927 35.102H92.4482C89.6406 27.0115 82.6012 20.7113 69.777 20.7113C56.0712 20.7113 46.7261 28.5509 46.1835 40.9343" fill="#4FB286"/>
</svg>
