<svg width="125" height="125" viewBox="0 0 125 125" fill="none" xmlns="http://www.w3.org/2000/svg">
<g clip-path="url(#clip0_53_56)">
<path d="M122.006 0.976562H39.8501V42.1689H80.2747C81.7149 42.1689 82.8832 43.3373 82.8832 44.7774V84.6441H124.614V3.58983C124.616 2.89719 124.341 2.23248 123.852 1.74226C123.363 1.25204 122.699 0.976562 122.006 0.976562Z" fill="#4FB286"/>
<path opacity="0.405" d="M39.8453 0.976562V42.1689H1.30436C0.774752 42.168 0.298095 41.8475 0.0974463 41.3573C-0.103202 40.8672 0.0118492 40.3045 0.388759 39.9324L39.8453 0.976562ZM85.1054 123.643C84.7302 124.011 84.1706 124.119 83.6854 123.916C83.2003 123.713 82.8841 123.239 82.8832 122.713V84.6441H124.614L85.1054 123.638V123.643Z" fill="#4FB286"/>
<path opacity="0.405" d="M39.8453 42.1689H81.5813C82.2967 42.1689 82.8832 42.7507 82.8832 43.4708V84.6441H42.4586C41.018 84.6441 39.8501 83.4762 39.8501 82.0356V42.1689H39.8453Z" fill="#4FB286"/>
</g>
<defs>
<clipPath id="clip0_53_56">
<rect width="125" height="125" fill="white"/>
</clipPath>
</defs>
</svg>
