<svg width="125" height="125" viewBox="0 0 125 125" fill="none" xmlns="http://www.w3.org/2000/svg">
<g clip-path="url(#clip0_53_5)">
<path d="M96.9432 0H28.0568C12.5615 0 0 12.5615 0 28.0568V96.9432C0 112.439 12.5615 125 28.0568 125H96.9432C112.439 125 125 112.439 125 96.9432V28.0568C125 12.5615 112.439 0 96.9432 0Z" fill="#2191FB"/>
<path fill-rule="evenodd" clip-rule="evenodd" d="M57.5857 48.4932C57.5857 45.5056 60.0536 44.1634 64.037 44.1634C70.6379 44.3062 77.1153 45.9811 82.958 49.056V31.3473C76.9466 28.99 70.537 27.8139 64.0803 27.8835C48.6664 27.8835 38.3616 35.9369 38.3616 49.5323C38.3616 70.5749 67.2843 67.1544 67.2843 76.2469C67.2843 79.754 64.2102 80.8797 60.0103 80.8797C52.6116 80.4717 45.4084 78.3523 38.9677 74.6882V92.8298C45.5306 95.6658 52.6012 97.1388 59.7506 97.1596C75.5542 97.1596 86.4651 89.366 86.4651 75.5108C86.595 52.9528 57.5857 57.0228 57.5857 48.4932V48.4932Z" fill="white"/>
</g>
<defs>
<clipPath id="clip0_53_5">
<rect width="125" height="125" fill="white"/>
</clipPath>
</defs>
</svg>
