<svg width="125" height="125" viewBox="0 0 125 125" fill="none" xmlns="http://www.w3.org/2000/svg">
<path fill-rule="evenodd" clip-rule="evenodd" d="M28.0568 0H96.9432C112.438 0 125 12.5615 125 28.0569V96.9431C125 112.438 112.438 125 96.9432 125H28.0568C12.5614 125 0 112.438 0 96.9431V28.0569C0 12.5615 12.5614 0 28.0568 0ZM64.0371 44.1636C60.0537 44.1636 57.5857 45.5056 57.5857 48.4932C57.5857 51.739 61.7866 53.1604 66.9841 54.9189C75.4446 57.7815 86.5457 61.5374 86.4652 75.511C86.4652 89.3662 75.5542 97.1597 59.7506 97.1597C52.6012 97.1389 45.5306 95.6658 38.9678 92.8298V74.6882C45.4084 78.3523 52.6116 80.4719 60.0104 80.8799C64.2102 80.8799 67.2844 79.7542 67.2844 76.2471C67.2844 72.6406 62.7345 71.0027 57.2439 69.0261C48.8912 66.0195 38.3616 62.229 38.3616 49.5325C38.3616 35.937 48.6664 27.8835 64.0803 27.8835C70.5371 27.814 76.9467 28.99 82.9581 31.3474V49.0562C77.1154 45.9812 70.6379 44.3062 64.0371 44.1636Z" fill="#2191FB"/>
</svg>
