<svg width="127" height="128" viewBox="0 0 127 128" fill="none" xmlns="http://www.w3.org/2000/svg">
<g clip-path="url(#clip0_110_54)">
<path d="M104.868 0.401123L103.957 5.14858C102.549 14.1457 103.059 16.7198 106.92 20.0588L110.647 23.1428L106.786 40.3599C104.479 50.6319 101.65 59.2405 99.8533 62.0695C98.3112 64.5101 96.5143 68.104 96.1257 70.0346C95.4822 72.3415 93.2967 74.6606 89.9577 76.7126C87.0072 78.3882 81.2155 82.8807 77.1116 86.4868C73.8333 89.4373 71.5749 91.2464 70.3486 92.0235L66.3418 95.1925C65.0547 97.2566 64.3262 98.92 64.047 100.183C63.7677 101.482 63.9255 102.344 64.3384 102.975C64.7391 103.583 65.4311 104.007 66.3782 104.275C67.4993 104.537 68.6533 104.631 69.8022 104.554C72.4014 104.376 74.974 103.92 77.4759 103.194C78.3258 102.963 78.9936 102.745 79.5764 102.55C80.4749 101.446 82.5511 99.3572 86.2301 95.7267C95.9922 86.0983 99.7197 80.8287 95.8707 82.2493C94.4501 82.7593 95.0937 81.4722 97.5342 78.8981C102.682 73.8836 105.633 66.3071 111.801 42.5455C116.682 23.7863 116.682 23.5192 120.276 23.5192C121.964 23.5192 126.735 23.8106 126.735 23.8106V0.401123H115.783H104.868ZM61.6186 40.5299C58.0732 40.5056 50.4481 45.9088 27.6214 64.5465C26.6379 66.8899 26.5529 68.5047 27.0022 69.5489C27.2936 70.2653 27.8278 70.7631 28.5685 71.1274C29.297 71.4916 30.2441 71.7102 31.2883 71.7952C33.3645 71.9773 35.8172 71.6495 37.7963 71.2609L39.1319 70.9574C39.5891 70.3443 40.1894 69.8524 40.8803 69.5246C42.2888 68.7476 48.2019 63.3566 54.1149 57.5771C64.5205 47.0379 66.961 42.2783 62.7235 40.7363C62.3759 40.598 62.0049 40.5279 61.6307 40.5299H61.6186ZM88.2821 47.8515C85.1616 47.9364 79.54 51.5547 69.9115 59.2405C65.079 63.1623 62.0193 65.275 60.3801 65.7121L54.0178 70.7388C51.6259 75.1099 51.2738 77.8175 51.9051 79.311C52.0632 79.6794 52.2926 80.0128 52.5802 80.2921C52.8678 80.5713 53.2078 80.7909 53.5807 80.938C54.5083 81.3043 55.4974 81.4897 56.4947 81.4844C58.8779 81.459 61.2468 81.1118 63.537 80.4523C64.7306 80.132 65.9095 79.7593 67.0703 79.3353L67.4224 79.1896L68.0659 78.8496C69.2801 77.2833 72.0727 74.3328 75.5696 70.9331C86.6187 60.2726 92.2646 52.6961 91.1111 49.867C90.589 48.495 89.6905 47.8029 88.2821 47.8515ZM58.8503 60.9646C57.9518 61.0618 55.9362 62.6159 52.3058 65.7971C47.0605 70.4353 41.3417 73.1065 39.3626 71.9166C38.9027 72.0205 38.4412 72.1176 37.9784 72.208C35.9629 72.6087 33.4495 72.9365 31.2033 72.7544C30.1449 72.6903 29.1076 72.4309 28.1435 71.9894C27.2343 71.5737 26.5086 70.8395 26.1037 69.9253C25.6545 68.8326 25.6545 67.4727 26.1644 65.7364L18.2722 72.2201L0.41156 86.9968V110.953L58.9352 64.85C58.9239 64.3452 58.9894 63.8417 59.1295 63.3566C59.5788 61.7296 59.5545 60.9039 58.8503 60.9768V60.9646ZM84.0324 68.7233C83.1461 68.7233 81.6648 69.9739 79.2971 72.4873C76.0795 75.9234 71.0164 79.2503 68.333 79.9302L67.9202 80.1488C67.4797 80.3307 67.0343 80.5007 66.5846 80.6587C65.8561 80.9016 64.909 81.193 63.8163 81.4844C61.6307 82.0793 58.911 82.6257 56.4826 82.565C55.3378 82.5635 54.204 82.3409 53.1436 81.9093C52.1441 81.4974 51.3433 80.714 50.9095 79.7238C50.2053 78.0361 50.4845 75.6684 52.0265 72.3051L0.399414 112.968V127.599H23.0804L71.1864 89.8137C72.437 88.4295 74.319 86.5354 76.8566 84.1677C83.656 77.8661 85.1981 75.6927 85.1981 72.4751C85.1981 69.9739 84.9188 68.7111 84.0324 68.7111V68.7233ZM95.4822 92.3999L91.3661 96.5038C89.0592 98.6894 84.9431 101.385 82.1262 102.538L81.5676 102.781L81.5312 102.842L81.4098 102.963C81.3005 103.048 81.252 103.06 81.167 103.097C80.0425 103.522 78.9 103.899 77.743 104.226C75.1703 104.975 72.5242 105.443 69.8508 105.622C68.5868 105.703 67.3178 105.593 66.0868 105.295C65.0185 105.059 64.0754 104.436 63.4399 103.546C62.8571 102.648 62.6871 101.446 63.0149 99.9642C63.2757 98.9096 63.663 97.8904 64.1684 96.9288L25.3509 127.599H76.978L83.1461 120.533C91.6211 110.649 95.4822 103.583 95.4822 97.5359V92.3999Z" fill="#4FB286"/>
</g>
<defs>
<clipPath id="clip0_110_54">
<rect width="127" height="128" fill="white"/>
</clipPath>
</defs>
</svg>
