{
    "asset" : {
        "generator" : "Khronos glTF Blender I/O v3.3.32",
        "version" : "2.0"
    },
    "scene" : 0,
    "scenes" : [
        {
            "name" : "Scene",
            "nodes" : [
                0
            ]
        }
    ],
    "nodes" : [
        {
            "mesh" : 0,
            "name" : "Cube.016",
            "scale" : [
                0.19650304317474365,
                0.850588321685791,
                0.2546434700489044
            ],
            "translation" : [
                -0.0055703818798065186,
                1.8495455980300903,
                0.01237630844116211
            ]
        }
    ],
    "materials" : [
        {
            "doubleSided" : true,
            "name" : "skin.002",
            "pbrMetallicRoughness" : {
                "baseColorFactor" : [
                    0.02117082104086876,
                    0.006107905879616737,
                    0,
                    1
                ],
                "metallicFactor" : 0,
                "roughnessFactor" : 0.5
            }
        },
        {
            "doubleSided" : true,
            "name" : "skin_normal",
            "pbrMetallicRoughness" : {
                "baseColorFactor" : [
                    0.8000000715255737,
                    0.37330371141433716,
                    0.16387419402599335,
                    1
                ],
                "metallicFactor" : 0,
                "roughnessFactor" : 0.5
            }
        },
        {
            "doubleSided" : true,
            "name" : "sk",
            "pbrMetallicRoughness" : {
                "baseColorFactor" : [
                    0.800000011920929,
                    0.800000011920929,
                    0.800000011920929,
                    1
                ],
                "metallicFactor" : 0,
                "roughnessFactor" : 0.5
            }
        },
        {
            "doubleSided" : true,
            "name" : "skin.001",
            "pbrMetallicRoughness" : {
                "baseColorFactor" : [
                    0,
                    0,
                    0,
                    1
                ],
                "metallicFactor" : 0,
                "roughnessFactor" : 0.5
            }
        },
        {
            "doubleSided" : true,
            "name" : "sk.001",
            "pbrMetallicRoughness" : {
                "baseColorFactor" : [
                    0.373409241437912,
                    0.49285653233528137,
                    0.8000000715255737,
                    1
                ],
                "metallicFactor" : 0,
                "roughnessFactor" : 0.5
            }
        },
        {
            "doubleSided" : true,
            "name" : "skin.004",
            "pbrMetallicRoughness" : {
                "baseColorFactor" : [
                    0.8000000715255737,
                    0.3242477476596832,
                    0.2722916305065155,
                    1
                ],
                "metallicFactor" : 0,
                "roughnessFactor" : 0.5
            }
        },
        {
            "doubleSided" : true,
            "name" : "skin_pink",
            "pbrMetallicRoughness" : {
                "baseColorFactor" : [
                    0.8343697190284729,
                    0.27860012650489807,
                    0.16704191267490387,
                    1
                ],
                "metallicFactor" : 0,
                "roughnessFactor" : 0.5
            }
        },
        {
            "doubleSided" : true,
            "name" : "skin_shadow",
            "pbrMetallicRoughness" : {
                "baseColorFactor" : [
                    0.42461442947387695,
                    0.2340928614139557,
                    0.11197832971811295,
                    1
                ],
                "metallicFactor" : 0,
                "roughnessFactor" : 0.5
            }
        }
    ],
    "meshes" : [
        {
            "name" : "Cube.100",
            "primitives" : [
                {
                    "attributes" : {
                        "POSITION" : 0,
                        "NORMAL" : 1,
                        "TEXCOORD_0" : 2
                    },
                    "indices" : 3,
                    "material" : 0
                },
                {
                    "attributes" : {
                        "POSITION" : 4,
                        "NORMAL" : 5,
                        "TEXCOORD_0" : 6
                    },
                    "indices" : 7,
                    "material" : 1
                },
                {
                    "attributes" : {
                        "POSITION" : 8,
                        "NORMAL" : 9,
                        "TEXCOORD_0" : 10
                    },
                    "indices" : 11,
                    "material" : 2
                },
                {
                    "attributes" : {
                        "POSITION" : 12,
                        "NORMAL" : 13,
                        "TEXCOORD_0" : 14
                    },
                    "indices" : 15,
                    "material" : 3
                },
                {
                    "attributes" : {
                        "POSITION" : 16,
                        "NORMAL" : 17,
                        "TEXCOORD_0" : 18
                    },
                    "indices" : 19,
                    "material" : 4
                },
                {
                    "attributes" : {
                        "POSITION" : 20,
                        "NORMAL" : 21,
                        "TEXCOORD_0" : 22
                    },
                    "indices" : 23,
                    "material" : 5
                },
                {
                    "attributes" : {
                        "POSITION" : 24,
                        "NORMAL" : 25,
                        "TEXCOORD_0" : 26
                    },
                    "indices" : 27,
                    "material" : 6
                },
                {
                    "attributes" : {
                        "POSITION" : 28,
                        "NORMAL" : 29,
                        "TEXCOORD_0" : 30
                    },
                    "indices" : 31,
                    "material" : 7
                }
            ]
        }
    ],
    "accessors" : [
        {
            "bufferView" : 0,
            "componentType" : 5126,
            "count" : 19968,
            "max" : [
                2.0854334831237793,
                2.385796546936035,
                5.488492965698242
            ],
            "min" : [
                -4.372409343719482,
                -0.013462662696838379,
                -5.633573055267334
            ],
            "type" : "VEC3"
        },
        {
            "bufferView" : 1,
            "componentType" : 5126,
            "count" : 19968,
            "type" : "VEC3"
        },
        {
            "bufferView" : 2,
            "componentType" : 5126,
            "count" : 19968,
            "type" : "VEC2"
        },
        {
            "bufferView" : 3,
            "componentType" : 5123,
            "count" : 29952,
            "type" : "SCALAR"
        },
        {
            "bufferView" : 4,
            "componentType" : 5126,
            "count" : 55097,
            "max" : [
                3.7580695152282715,
                1.246926188468933,
                6.138472557067871
            ],
            "min" : [
                -3.7243971824645996,
                -1.8853946924209595,
                -6.235675811767578
            ],
            "type" : "VEC3"
        },
        {
            "bufferView" : 5,
            "componentType" : 5126,
            "count" : 55097,
            "type" : "VEC3"
        },
        {
            "bufferView" : 6,
            "componentType" : 5126,
            "count" : 55097,
            "type" : "VEC2"
        },
        {
            "bufferView" : 7,
            "componentType" : 5123,
            "count" : 82680,
            "type" : "SCALAR"
        },
        {
            "bufferView" : 8,
            "componentType" : 5126,
            "count" : 6144,
            "max" : [
                1.7163875102996826,
                0.5835596919059753,
                2.863564968109131
            ],
            "min" : [
                0.5216419696807861,
                -0.8354941606521606,
                -2.9607696533203125
            ],
            "type" : "VEC3"
        },
        {
            "bufferView" : 9,
            "componentType" : 5126,
            "count" : 6144,
            "type" : "VEC3"
        },
        {
            "bufferView" : 10,
            "componentType" : 5126,
            "count" : 6144,
            "type" : "VEC2"
        },
        {
            "bufferView" : 11,
            "componentType" : 5123,
            "count" : 9216,
            "type" : "SCALAR"
        },
        {
            "bufferView" : 12,
            "componentType" : 5126,
            "count" : 11008,
            "max" : [
                3.0686252117156982,
                0.42552274465560913,
                2.8389058113098145
            ],
            "min" : [
                -1.9184479713439941,
                -1.0461136102676392,
                -2.29376220703125
            ],
            "type" : "VEC3"
        },
        {
            "bufferView" : 13,
            "componentType" : 5126,
            "count" : 11008,
            "type" : "VEC3"
        },
        {
            "bufferView" : 14,
            "componentType" : 5126,
            "count" : 11008,
            "type" : "VEC2"
        },
        {
            "bufferView" : 15,
            "componentType" : 5123,
            "count" : 16512,
            "type" : "SCALAR"
        },
        {
            "bufferView" : 16,
            "componentType" : 5126,
            "count" : 3072,
            "max" : [
                1.8095948696136475,
                0.4255225658416748,
                2.8389058113098145
            ],
            "min" : [
                1.0620405673980713,
                0.25319087505340576,
                -1.6272664070129395
            ],
            "type" : "VEC3"
        },
        {
            "bufferView" : 17,
            "componentType" : 5126,
            "count" : 3072,
            "type" : "VEC3"
        },
        {
            "bufferView" : 18,
            "componentType" : 5126,
            "count" : 3072,
            "type" : "VEC2"
        },
        {
            "bufferView" : 19,
            "componentType" : 5123,
            "count" : 4608,
            "type" : "SCALAR"
        },
        {
            "bufferView" : 20,
            "componentType" : 5126,
            "count" : 1824,
            "max" : [
                -1.738903522491455,
                0.3541487455368042,
                6.04488468170166
            ],
            "min" : [
                -2.3567256927490234,
                -0.4195467233657837,
                -6.142088890075684
            ],
            "type" : "VEC3"
        },
        {
            "bufferView" : 21,
            "componentType" : 5126,
            "count" : 1824,
            "type" : "VEC3"
        },
        {
            "bufferView" : 22,
            "componentType" : 5126,
            "count" : 1824,
            "type" : "VEC2"
        },
        {
            "bufferView" : 23,
            "componentType" : 5123,
            "count" : 2736,
            "type" : "SCALAR"
        },
        {
            "bufferView" : 24,
            "componentType" : 5126,
            "count" : 9216,
            "max" : [
                1.3689854145050049,
                0.043672800064086914,
                3.8088953495025635
            ],
            "min" : [
                0.5313365459442139,
                -1.0641306638717651,
                -3.906102180480957
            ],
            "type" : "VEC3"
        },
        {
            "bufferView" : 25,
            "componentType" : 5126,
            "count" : 9216,
            "type" : "VEC3"
        },
        {
            "bufferView" : 26,
            "componentType" : 5126,
            "count" : 9216,
            "type" : "VEC2"
        },
        {
            "bufferView" : 27,
            "componentType" : 5123,
            "count" : 13824,
            "type" : "SCALAR"
        },
        {
            "bufferView" : 28,
            "componentType" : 5126,
            "count" : 384,
            "max" : [
                -2.365117073059082,
                0.3480339050292969,
                5.895678997039795
            ],
            "min" : [
                -2.493165969848633,
                -0.41343235969543457,
                -6.229561805725098
            ],
            "type" : "VEC3"
        },
        {
            "bufferView" : 29,
            "componentType" : 5126,
            "count" : 384,
            "type" : "VEC3"
        },
        {
            "bufferView" : 30,
            "componentType" : 5126,
            "count" : 384,
            "type" : "VEC2"
        },
        {
            "bufferView" : 31,
            "componentType" : 5123,
            "count" : 576,
            "type" : "SCALAR"
        }
    ],
    "bufferViews" : [
        {
            "buffer" : 0,
            "byteLength" : 239616,
            "byteOffset" : 0,
            "target" : 34962
        },
        {
            "buffer" : 0,
            "byteLength" : 239616,
            "byteOffset" : 239616,
            "target" : 34962
        },
        {
            "buffer" : 0,
            "byteLength" : 159744,
            "byteOffset" : 479232,
            "target" : 34962
        },
        {
            "buffer" : 0,
            "byteLength" : 59904,
            "byteOffset" : 638976,
            "target" : 34963
        },
        {
            "buffer" : 0,
            "byteLength" : 661164,
            "byteOffset" : 698880,
            "target" : 34962
        },
        {
            "buffer" : 0,
            "byteLength" : 661164,
            "byteOffset" : 1360044,
            "target" : 34962
        },
        {
            "buffer" : 0,
            "byteLength" : 440776,
            "byteOffset" : 2021208,
            "target" : 34962
        },
        {
            "buffer" : 0,
            "byteLength" : 165360,
            "byteOffset" : 2461984,
            "target" : 34963
        },
        {
            "buffer" : 0,
            "byteLength" : 73728,
            "byteOffset" : 2627344,
            "target" : 34962
        },
        {
            "buffer" : 0,
            "byteLength" : 73728,
            "byteOffset" : 2701072,
            "target" : 34962
        },
        {
            "buffer" : 0,
            "byteLength" : 49152,
            "byteOffset" : 2774800,
            "target" : 34962
        },
        {
            "buffer" : 0,
            "byteLength" : 18432,
            "byteOffset" : 2823952,
            "target" : 34963
        },
        {
            "buffer" : 0,
            "byteLength" : 132096,
            "byteOffset" : 2842384,
            "target" : 34962
        },
        {
            "buffer" : 0,
            "byteLength" : 132096,
            "byteOffset" : 2974480,
            "target" : 34962
        },
        {
            "buffer" : 0,
            "byteLength" : 88064,
            "byteOffset" : 3106576,
            "target" : 34962
        },
        {
            "buffer" : 0,
            "byteLength" : 33024,
            "byteOffset" : 3194640,
            "target" : 34963
        },
        {
            "buffer" : 0,
            "byteLength" : 36864,
            "byteOffset" : 3227664,
            "target" : 34962
        },
        {
            "buffer" : 0,
            "byteLength" : 36864,
            "byteOffset" : 3264528,
            "target" : 34962
        },
        {
            "buffer" : 0,
            "byteLength" : 24576,
            "byteOffset" : 3301392,
            "target" : 34962
        },
        {
            "buffer" : 0,
            "byteLength" : 9216,
            "byteOffset" : 3325968,
            "target" : 34963
        },
        {
            "buffer" : 0,
            "byteLength" : 21888,
            "byteOffset" : 3335184,
            "target" : 34962
        },
        {
            "buffer" : 0,
            "byteLength" : 21888,
            "byteOffset" : 3357072,
            "target" : 34962
        },
        {
            "buffer" : 0,
            "byteLength" : 14592,
            "byteOffset" : 3378960,
            "target" : 34962
        },
        {
            "buffer" : 0,
            "byteLength" : 5472,
            "byteOffset" : 3393552,
            "target" : 34963
        },
        {
            "buffer" : 0,
            "byteLength" : 110592,
            "byteOffset" : 3399024,
            "target" : 34962
        },
        {
            "buffer" : 0,
            "byteLength" : 110592,
            "byteOffset" : 3509616,
            "target" : 34962
        },
        {
            "buffer" : 0,
            "byteLength" : 73728,
            "byteOffset" : 3620208,
            "target" : 34962
        },
        {
            "buffer" : 0,
            "byteLength" : 27648,
            "byteOffset" : 3693936,
            "target" : 34963
        },
        {
            "buffer" : 0,
            "byteLength" : 4608,
            "byteOffset" : 3721584,
            "target" : 34962
        },
        {
            "buffer" : 0,
            "byteLength" : 4608,
            "byteOffset" : 3726192,
            "target" : 34962
        },
        {
            "buffer" : 0,
            "byteLength" : 3072,
            "byteOffset" : 3730800,
            "target" : 34962
        },
        {
            "buffer" : 0,
            "byteLength" : 1152,
            "byteOffset" : 3733872,
            "target" : 34963
        }
    ],
    "buffers" : [
        {
            "byteLength" : 3735024,
            "uri" : "face.bin"
        }
    ]
}
