<svg width="35" height="36" viewBox="0 0 35 36" fill="none" xmlns="http://www.w3.org/2000/svg">
<path d="M28 28.4999H30.3335V30.8334H28V28.4999Z" fill="#F1F4EF"/>
<path d="M30.3333 30.8332H32.6667V33.1667H30.3333V30.8332Z" fill="#F1F4EF"/>
<path d="M18.6668 9.83316H20.9989V7.49947H14.001V9.83316H18.6668Z" fill="#F1F4EF"/>
<path d="M16.3333 2.83327V5.16696H18.6667V0.499786H16.3333V2.83327Z" fill="#F1F4EF"/>
<path d="M4.66675 5.16696H7.00023V7.50044H4.66675V5.16696Z" fill="#F1F4EF"/>
<path d="M2.33301 2.83327H4.66649V5.16675H2.33301V2.83327Z" fill="#F1F4EF"/>
<path d="M11.6667 12.1665H14.0013V9.83301H9.33325V14.4993H11.6667V12.1665Z" fill="#F1F4EF"/>
<path d="M4.66662 19.1665V16.8329H0V19.1665H4.66662Z" fill="#F1F4EF"/>
<path d="M9.3332 16.8332V14.4995H7V21.4995H9.3332V16.8332Z" fill="#F1F4EF"/>
<path d="M4.66675 28.4999H7.00023V30.8334H4.66675V28.4999Z" fill="#F1F4EF"/>
<path d="M2.33301 30.8332H4.66649V33.1667H2.33301V30.8332Z" fill="#F1F4EF"/>
<path d="M11.6667 23.8332V21.4998H9.33325V26.1666H14.0013V23.8332L11.6667 23.8332Z" fill="#F1F4EF"/>
<path d="M16.3336 26.1666H14.0015V28.4995H20.9994V26.1666H16.3336Z" fill="#F1F4EF"/>
<path d="M16.3333 33.1673V35.5002H18.6667V30.8336H16.3333V33.1673Z" fill="#F1F4EF"/>
<path d="M23.3331 23.8332H20.9985V26.1667H25.6665V21.4998H23.3331V23.8332Z" fill="#F1F4EF"/>
<path d="M28.0002 19.1665V14.4994H25.667V21.4994H28.0002V19.1665Z" fill="#F1F4EF"/>
<path d="M30.3333 16.8332V19.1669H34.9999V16.8332H30.3333Z" fill="#F1F4EF"/>
<path d="M23.3331 12.1665V14.4994H25.6665V9.83308H20.9985V12.1666L23.3331 12.1665Z" fill="#F1F4EF"/>
<path d="M28 5.16696H30.3335V7.50044H28V5.16696Z" fill="#F1F4EF"/>
<path d="M30.3333 2.83327H32.6667V5.16696H30.3333V2.83327Z" fill="#F1F4EF"/>
</svg>
